<?xml version="1.0" standalone="no"?><!DOCTYPE svg PUBLIC "-//W3C//DTD SVG 1.1//EN" "http://www.w3.org/Graphics/SVG/1.1/DTD/svg11.dtd"><svg t="1532166169899" class="icon" style="" viewBox="0 0 1024 1024" version="1.1" xmlns="http://www.w3.org/2000/svg" p-id="7170" xmlns:xlink="http://www.w3.org/1999/xlink" width="200" height="200"><defs><style type="text/css"></style></defs><path d="M469.724771 476.951306m-27.460833 0a27.460833 27.460833 0 1 0 54.921665 0 27.460833 27.460833 0 1 0-54.921665 0Z" fill="" p-id="7171"></path><path d="M373.611856 476.951306m-27.460833 0a27.460833 27.460833 0 1 0 54.921666 0 27.460833 27.460833 0 1 0-54.921666 0Z" fill="" p-id="7172"></path><path d="M277.498941 476.951306m-27.460832 0a27.460833 27.460833 0 1 0 54.921665 0 27.460833 27.460833 0 1 0-54.921665 0Z" fill="" p-id="7173"></path><path d="M841.168666 151.03458c-13.730416 0-25.292872 11.562456-25.292872 25.292872v598.357093c0 28.90614-23.124912 52.031052-52.031052 52.031051H259.432604c-28.90614 0-52.031052-23.124912-52.031051-52.031051V176.327452c0-13.730416-11.562456-25.292872-25.292873-25.292872s-25.292872 11.562456-25.292872 25.292872v598.357093c0 56.366972 46.249824 102.616796 102.616796 102.616796h504.412138c56.366972 0 102.616796-46.249824 102.616796-102.616796V176.327452c0-14.45307-11.562456-25.292872-25.292872-25.292872z" fill="" p-id="7174"></path><path d="M741.442484 689.411433H276.776288c-13.730416 0-25.292872 11.562456-25.292872 25.292872s11.562456 25.292872 25.292872 25.292872h464.666196c13.730416 0 25.292872-11.562456 25.292872-25.292872s-10.839802-25.292872-25.292872-25.292872z" fill="" p-id="7175"></path><path d="M251.483416 601.97036c0 13.730416 11.562456 25.292872 25.292872 25.292872h464.666196c13.730416 0 25.292872-11.562456 25.292872-25.292872s-11.562456-25.292872-25.292872-25.292872H276.776288c-13.730416 0-25.292872 11.562456-25.292872 25.292872z" fill="" p-id="7176"></path></svg>