<?xml version="1.0" standalone="no"?><!DOCTYPE svg PUBLIC "-//W3C//DTD SVG 1.1//EN" "http://www.w3.org/Graphics/SVG/1.1/DTD/svg11.dtd"><svg t="1532166063835" class="icon" style="" viewBox="0 0 1024 1024" version="1.1" xmlns="http://www.w3.org/2000/svg" p-id="3855" xmlns:xlink="http://www.w3.org/1999/xlink" width="200" height="200"><defs><style type="text/css"></style></defs><path d="M158.983769 515.974594c0-194.39379 158.261115-352.654905 352.654904-352.654905 65.761468 0 130.077629 18.788991 184.999295 52.753705l-67.206775 11.562456c-13.730416 2.16796-23.124912 15.175723-20.956952 28.90614 2.16796 12.285109 13.007763 20.956951 24.570219 20.956951h4.335921l127.187015-21.679604c13.730416-2.16796 23.124912-15.175723 20.956951-28.90614L766.012703 109.120677c-2.16796-13.730416-15.175723-23.124912-28.90614-20.956951-13.730416 2.16796-23.124912 15.175723-20.956951 28.90614l9.394495 57.089626c-63.593507-40.468596-138.026817-62.1482-214.628087-62.148201C289.061397 112.733945 108.398024 293.397318 108.398024 515.974594c0 62.870854 14.45307 123.573747 41.913903 179.218067 4.335921 8.671842 13.730416 13.730416 22.402258 13.730416 3.613267 0 7.949188-0.722653 11.562456-2.890614 12.285109-6.503881 17.343684-21.679605 11.562456-33.964714-24.570219-48.417784-36.855328-101.171489-36.855328-156.093155z" fill="" p-id="3856"></path><path d="M859.957657 672.067749c-12.285109-6.503881-27.460833-2.16796-33.964714 10.117149-61.425547 115.624559-180.663373 187.889908-311.463656 187.889908-65.761468 0-130.077629-18.788991-184.999294-52.753705l67.206775-11.562456c13.730416-2.16796 23.124912-15.175723 20.956951-28.90614s-15.175723-23.124912-28.90614-20.956951l-127.187014 21.679605c-13.730416 2.16796-23.124912 15.175723-20.956952 28.90614l19.511645 117.792519c2.16796 12.285109 13.007763 20.956951 24.570218 20.956951h4.335921c13.730416-2.16796 23.124912-15.175723 20.956952-28.90614l-9.394496-57.089625c63.593507 40.468596 138.026817 62.1482 214.628088 62.1482 149.589273 0 286.170783-82.382498 356.268172-214.628088 5.058574-13.007763 0.722653-28.183486-11.562456-34.687367z" fill="" p-id="3857"></path><path d="M887.41849 605.583627m-27.460833 0a27.460833 27.460833 0 1 0 54.921666 0 27.460833 27.460833 0 1 0-54.921666 0Z" fill="" p-id="3858"></path><path d="M893.199718 509.470713m-27.460833 0a27.460833 27.460833 0 1 0 54.921665 0 27.460833 27.460833 0 1 0-54.921665 0Z" fill="" p-id="3859"></path><path d="M882.359915 417.693719m-27.460832 0a27.460833 27.460833 0 1 0 54.921665 0 27.460833 27.460833 0 1 0-54.921665 0Z" fill="" p-id="3860"></path><path d="M497.908257 385.896965l-59.98024-59.98024c-21.679605-21.679605-57.089626-21.679605-78.769231 0-0.722653 0.722653-21.679605 21.679605-36.132674 49.140438-30.351447 57.089626-8.671842 91.05434 6.503881 106.952717l108.398024 108.398024 1.445307 1.445307 0.722653 0.722654 108.398024 108.398023c10.117149 10.117149 27.460833 21.679605 52.753705 21.679605 15.175723 0 33.242061-4.335921 54.199012-15.175723 27.460833-14.45307 48.417784-35.410021 49.140438-36.132675 21.679605-21.679605 21.679605-57.089626 0-78.76923l-59.98024-59.98024c-10.839802-10.839802-24.570219-16.62103-39.745942-16.621031-13.730416 0-26.738179 5.058574-36.855328 13.730417L500.076217 462.498236c19.511644-21.679605 18.788991-55.644319-2.16796-76.601271zM552.829922 585.34933c5.058574 5.058574 11.562456 7.949188 18.788991 7.226535 7.226535-0.722653 13.730416-3.613267 18.066338-9.394496l12.285109-15.175723c1.445307-0.722653 2.16796-0.722653 2.890614-0.722654 0.722653 0 2.16796 0 3.613267 1.445307l59.98024 59.98024c2.16796 2.16796 2.16796 5.058574 0 7.226535-0.722653 0.722653-58.534933 55.644319-84.550458 29.628793l-108.398024-108.398024-1.445307-1.445307-0.722654-0.722653-108.398024-108.398024c-26.015526-26.015526 28.90614-83.827805 29.628793-84.550459 2.16796-2.16796 5.058574-2.16796 7.226535 0l59.98024 59.98024c2.16796 2.16796 2.16796 5.058574 0 7.226535l-0.722653 0.722654-15.175724 16.62103c-0.722653 0.722653-0.722653 1.445307-1.445307 1.445307-0.722653 0.722653-1.445307 1.445307-1.445307 2.16796-0.722653 0.722653-0.722653 1.445307-1.445307 2.167961-0.722653 0.722653-0.722653 1.445307-0.722653 2.16796 0 0.722653-0.722653 1.445307-0.722654 2.167961 0 0.722653-0.722653 1.445307-0.722653 2.16796v8.671842c0 0.722653 0.722653 1.445307 0.722653 2.167961 0 0.722653 0.722653 1.445307 0.722654 2.16796 0 0.722653 0.722653 1.445307 1.445307 2.167961 0.722653 0.722653 0.722653 1.445307 1.445307 2.16796 0.722653 0.722653 1.445307 1.445307 1.445307 2.167961 0.722653 0.722653 0.722653 1.445307 1.445307 1.445307L552.829922 585.34933z" fill="" p-id="3861"></path></svg>