<?xml version="1.0" standalone="no"?><!DOCTYPE svg PUBLIC "-//W3C//DTD SVG 1.1//EN" "http://www.w3.org/Graphics/SVG/1.1/DTD/svg11.dtd"><svg t="1532166149004" class="icon" style="" viewBox="0 0 1024 1024" version="1.1" xmlns="http://www.w3.org/2000/svg" p-id="6756" xmlns:xlink="http://www.w3.org/1999/xlink" width="200" height="200"><defs><style type="text/css"></style></defs><path d="M515.974594 762.399435m-27.460833 0a27.460833 27.460833 0 1 0 54.921666 0 27.460833 27.460833 0 1 0-54.921666 0Z" fill="" p-id="6757"></path><path d="M515.974594 666.286521m-27.460833 0a27.460833 27.460833 0 1 0 54.921666 0 27.460833 27.460833 0 1 0-54.921666 0Z" fill="" p-id="6758"></path><path d="M515.974594 569.450953m-27.460833 0a27.460833 27.460833 0 1 0 54.921666 0 27.460833 27.460833 0 1 0-54.921666 0Z" fill="" p-id="6759"></path><path d="M828.160903 278.221595H667.731828c18.788991-13.007763 28.90614-28.183486 33.964714-41.191249 10.839802-26.738179 3.613267-52.753705-8.671842-67.206775-4.335921-5.781228-22.402258-25.292872-53.476358-23.847565-39.023289 2.16796-79.491884 35.410021-123.573748 101.894142-43.35921-66.484121-84.550459-100.448836-123.573747-101.894142-31.0741-1.445307-49.140438 18.066337-53.476359 23.847565-12.285109 14.45307-19.511644 40.468596-8.671842 67.206775 5.058574 13.007763 15.175723 27.460833 33.964715 41.191249H203.065632c-27.460833 0-49.863091 22.402258-49.863091 49.863091v132.968243c0 4.335921 1.445307 8.671842 3.613267 13.007763l9.394495 16.62103V838.278052c0 27.460833 22.402258 49.863091 49.863091 49.863091h598.357093c27.460833 0 49.863091-22.402258 49.863091-49.863091V490.681722l9.394495-16.62103c2.16796-3.613267 3.613267-7.949188 3.613268-13.007763V328.807339c0.722653-28.183486-21.679605-50.585745-49.140438-50.585744z m-187.889908-81.659845h1.445307c5.781228 0 8.671842 2.890614 10.117149 4.335921l1.445307 1.445307c0.722653 1.445307 3.613267 7.949188 0 17.343684-3.613267 7.949188-19.511644 31.0741-87.441073 43.35921 41.913903-58.534933 66.484121-65.761468 74.43331-66.484122z m-263.768525 5.781228c0.722653-0.722653 1.445307-1.445307 1.445307-2.16796 0 0 3.613267-3.613267 10.117149-3.613268h0.722653c7.949188 0.722653 33.242061 7.226535 75.155964 66.484122-67.929428-12.285109-83.827805-35.410021-87.441073-43.35921-3.613267-9.394495-0.722653-15.898377 0-17.343684zM203.788285 446.599859l-0.722653-117.79252h286.893436v117.79252H203.788285z m610.642202 391.678193H216.796048V497.185603h597.634439V838.278052z m13.007763-391.678193H540.544813V328.807339h286.893437v117.79252z" fill="" p-id="6760"></path></svg>