<?xml version="1.0" standalone="no"?><!DOCTYPE svg PUBLIC "-//W3C//DTD SVG 1.1//EN" "http://www.w3.org/Graphics/SVG/1.1/DTD/svg11.dtd"><svg t="1532166470080" class="icon" style="" viewBox="0 0 1024 1024" version="1.1" xmlns="http://www.w3.org/2000/svg" p-id="10510" xmlns:xlink="http://www.w3.org/1999/xlink" width="200" height="200"><defs><style type="text/css"></style></defs><path d="M220.409315 348.318984c-2.890614 4.335921-5.781228 8.671842-9.394495 12.285109-5.781228 5.781228-13.007763 10.839802-23.124912 15.175724-2.890614 1.445307-5.781228 2.890614-8.671842 3.613267-7.226535 2.890614-15.175723 6.503881-23.124911 11.562456-13.730416 8.671842-24.570219 20.234298-30.351447 33.964714l-2.167961 6.503881c-5.781228 26.738179-8.671842 54.199012-8.671842 81.659845 0 27.460833 2.890614 54.921665 8.671842 81.659845l2.167961 6.503881c5.781228 13.730416 15.898377 25.292872 30.351447 33.964715 7.949188 5.058574 15.898377 8.671842 23.124911 11.562455 2.890614 1.445307 6.503881 2.890614 9.394496 4.335921 10.839802 5.058574 18.066337 10.117149 23.847565 15.898377 4.335921 5.058574 8.671842 12.285109 12.285109 19.511645 2.890614 5.058574 4.335921 9.394495 5.781228 14.453069 2.16796 7.949188 2.890614 16.62103 1.445307 28.183487 0 2.890614-0.722653 6.503881-0.722653 9.394495-0.722653 7.949188-2.16796 16.62103-1.445307 25.292872 0 16.62103 5.058574 31.796754 14.45307 43.35921 0.722653 0.722653 0.722653 1.445307 1.445307 2.16796 0.722653 0.722653 1.445307 2.16796 2.890614 2.890614 41.191249 36.855328 88.88638 64.316161 141.640084 81.659845 2.16796 0.722653 3.613267 0.722653 5.781228 1.445307 15.175723 2.16796 31.0741-0.722653 45.52717-8.671842 7.949188-4.335921 15.175723-9.394495 21.679605-14.45307 2.890614-2.16796 5.058574-4.335921 7.949189-5.781228 9.394495-6.503881 18.066337-10.839802 26.015525-12.285109 7.226535-1.445307 15.175723-1.445307 23.124912-1.445307 5.058574 0 10.839802 0.722653 15.175724 2.167961 7.949188 2.16796 15.898377 5.781228 24.570218 12.285109 2.890614 1.445307 5.058574 3.613267 7.949189 5.781228 6.503881 5.058574 13.007763 10.117149 20.956951 14.45307 11.562456 6.503881 23.847565 9.394495 36.132675 9.394495 2.890614 0 5.781228 0 8.671842-0.722653h0.722653c2.16796 0 3.613267-0.722653 5.781228-1.445307 52.753705-17.343684 99.726182-44.804517 141.640085-81.659845l2.890614-2.890614c10.117149-12.285109 15.898377-28.183486 15.898377-44.804517 0-9.394495-0.722653-18.066337-1.445307-26.015525-0.722653-3.613267-0.722653-6.503881-0.722654-10.117149-0.722653-11.562456 0-20.956951 2.167961-28.90614 2.16796-6.503881 6.503881-14.45307 10.117148-20.956951 2.890614-4.335921 5.781228-8.671842 9.394496-12.28511 5.781228-5.781228 13.007763-10.839802 23.124912-15.175723 2.890614-1.445307 5.781228-2.890614 8.671842-3.613268 7.226535-2.890614 15.175723-6.503881 23.124911-11.562455 13.730416-8.671842 24.570219-20.234298 30.351447-34.687368l2.167961-6.503882c5.781228-26.738179 8.671842-54.199012 8.671841-81.659844 0-27.460833-2.890614-54.921665-8.671841-81.659845l-2.167961-6.503881c-5.781228-13.730416-15.898377-25.292872-30.351447-33.964715-7.949188-5.058574-15.898377-8.671842-23.124911-11.562456-2.890614-1.445307-6.503881-2.890614-9.394496-4.33592-10.117149-5.058574-18.066337-10.117149-23.847565-15.898377-5.058574-5.058574-9.394495-12.285109-13.007763-19.511645-2.890614-5.058574-4.335921-9.394495-5.781228-14.45307-2.16796-7.949188-2.890614-16.62103-1.445307-28.183486 0-2.890614 0.722653-6.503881 0.722654-9.394495 0.722653-7.949188 2.16796-16.62103 1.445307-25.292872 0-16.62103-5.058574-31.796754-14.45307-43.35921-0.722653-0.722653-0.722653-1.445307-1.445307-2.167961-0.722653-0.722653-1.445307-2.16796-2.890614-2.890613-41.191249-36.855328-88.88638-64.316161-141.640085-81.659845-2.16796-0.722653-3.613267-0.722653-5.781228-1.445307-15.175723-2.16796-31.0741 0.722653-45.52717 8.671842-7.949188 4.335921-15.175723 9.394495-21.679605 14.45307-2.890614 2.16796-5.058574 4.335921-7.949188 5.781228-9.394495 6.503881-18.066337 10.839802-26.015526 12.285109-7.226535 1.445307-15.175723 1.445307-23.124912 1.445307-5.058574 0-10.839802-0.722653-15.175723-2.167961-7.949188-2.16796-15.898377-5.781228-25.292872-12.285109-2.890614-1.445307-5.058574-3.613267-7.949189-5.781228-6.503881-5.058574-13.007763-10.117149-20.956951-14.45307-14.45307-7.949188-30.351447-10.839802-45.52717-9.394495h-0.722654c-2.16796 0-3.613267 0.722653-5.781228 1.445307-52.753705 17.343684-99.726182 44.804517-141.640084 81.659845l-2.890614 2.890613c-10.117149 12.285109-15.898377 28.183486-15.898377 44.804517 0 9.394495 0.722653 18.066337 1.445307 26.015526 0.722653 3.613267 0.722653 6.503881 0.722653 10.117149 0.722653 11.562456 0 20.956951-2.16796 28.906139 0 8.671842-4.335921 15.898377-7.949189 22.402259z m26.015526 48.417784c6.503881-6.503881 12.285109-13.730416 17.343684-22.402258 5.058574-9.394495 11.562456-19.511644 15.175723-31.796754 4.335921-13.730416 5.781228-29.628793 4.335921-47.695131 0-3.613267-0.722653-7.949188-1.445307-11.562456-0.722653-6.503881-1.445307-13.007763-1.445307-18.78899 0-5.058574 1.445307-9.394495 3.613268-13.007763 34.687368-31.0741 75.155963-54.199012 119.237826-68.652082 4.335921-0.722653 8.671842 0.722653 13.730417 3.613267s10.117149 6.503881 15.898376 10.839803l8.671842 6.503881c14.45307 10.117149 27.460833 15.898377 40.468596 19.511644 8.671842 2.16796 18.066337 3.613267 28.183486 3.613268 10.839802 0 23.124912 0 35.410021-2.890614 14.45307-3.613267 28.183486-10.117149 43.35921-20.234298 2.890614-2.16796 6.503881-4.335921 9.394495-7.226535 5.781228-4.335921 10.839802-7.949188 15.898377-10.839802 5.058574-2.890614 9.394495-3.613267 13.730417-3.613268 44.081863 15.175723 84.550459 38.300635 119.237826 69.374736 2.16796 3.613267 3.613267 7.949188 3.613268 13.007763 0 5.781228-0.722653 12.285109-1.445307 18.78899-0.722653 3.613267-0.722653 7.226535-1.445307 10.839803-1.445307 17.343684-0.722653 31.796754 2.890614 45.52717 2.16796 8.671842 5.781228 17.343684 10.839802 26.015526 5.058574 9.394495 11.562456 19.511644 20.234298 28.906139 10.117149 10.839802 23.124912 19.511644 39.023288 27.460833 3.613267 1.445307 7.226535 2.890614 10.839803 5.058575 6.503881 2.890614 12.285109 5.058574 17.343684 7.949188 4.335921 2.890614 7.949188 6.503881 9.394495 10.117149 4.335921 22.402258 6.503881 45.52717 6.503881 68.652082s-2.16796 46.249824-6.503881 68.652082c-1.445307 4.335921-5.058574 7.226535-10.117149 10.117149-5.058574 2.890614-10.839802 5.781228-16.62103 7.949188-3.613267 1.445307-6.503881 2.890614-10.117149 4.335921-15.898377 7.226535-27.460833 15.175723-37.577982 25.292872-6.503881 6.503881-12.285109 13.730416-17.343684 22.402258-5.058574 9.394495-11.562456 19.511644-15.175723 31.796754-4.335921 13.730416-5.781228 29.628793-4.335921 47.695131 0 3.613267 0.722653 7.949188 1.445307 11.562456 0.722653 6.503881 1.445307 13.007763 1.445307 18.78899 0 5.058574-1.445307 9.394495-3.613267 13.007763-34.687368 31.0741-75.155963 54.199012-119.237827 68.652082-4.335921 0.722653-8.671842-0.722653-13.730416-3.613267s-10.117149-6.503881-15.898377-10.839803l-8.671842-6.503881c-14.45307-10.117149-27.460833-15.898377-40.468596-19.511644a115.624559 115.624559 0 0 0-28.183486-3.613268h-4.335921c-9.394495 0-20.234298 0.722653-30.351447 2.890614-14.45307 3.613267-28.183486 10.117149-43.359209 20.234298-2.890614 2.16796-6.503881 4.335921-9.394496 7.226535-5.781228 4.335921-10.839802 7.949188-15.898376 10.839802-5.058574 2.890614-9.394495 3.613267-13.730417 3.613268-44.081863-15.175723-84.550459-38.300635-119.237826-68.652082-2.16796-3.613267-3.613267-7.949188-3.613268-13.007763 0-5.781228 0.722653-12.285109 1.445307-18.788991 0.722653-3.613267 0.722653-7.226535 1.445307-10.839802 1.445307-17.343684 0.722653-31.796754-2.890614-45.52717-2.16796-8.671842-5.781228-17.343684-10.839802-26.015526-5.058574-9.394495-11.562456-19.511644-20.234298-28.90614-10.839802-11.562456-23.124912-20.234298-39.745942-27.460833-3.613267-1.445307-7.226535-2.890614-10.839802-5.058574-6.503881-2.890614-12.285109-5.058574-17.343684-7.949188-4.335921-2.890614-7.949188-6.503881-9.394496-10.117149-4.335921-22.402258-6.503881-45.52717-6.503881-68.652082s2.16796-46.249824 6.503881-68.652082c1.445307-4.335921 5.058574-7.226535 10.117149-10.117149 5.058574-2.890614 10.839802-5.781228 16.621031-7.949188 3.613267-1.445307 6.503881-2.890614 10.117149-4.335921 15.898377-8.671842 28.183486-16.62103 37.577981-26.015526z" fill="" p-id="10511"></path><path d="M513.806634 685.075512c57.812279 0 112.011291-28.183486 145.253352-75.155964 7.949188-11.562456 5.058574-27.460833-5.781228-35.410021-11.562456-7.949188-27.460833-5.058574-35.410021 5.781228-23.847565 33.964714-62.870854 54.199012-104.062103 54.199012-70.097389 0-127.187015-57.089626-127.187015-127.187015 0-59.98024 42.636556-112.011291 101.171489-125.019054 13.730416-2.890614 22.402258-16.62103 19.511644-29.628793-2.890614-13.730416-16.62103-22.402258-29.628793-19.511645-81.659845 17.343684-140.917431 90.331687-140.917431 174.159492-0.722653 97.558222 78.769231 177.772759 177.050106 177.77276z" fill="" p-id="10512"></path><path d="M574.509527 367.107975m-25.292872 0a25.292872 25.292872 0 1 0 50.585744 0 25.292872 25.292872 0 1 0-50.585744 0Z" fill="" p-id="10513"></path><path d="M640.270995 421.306987m-25.292872 0a25.292872 25.292872 0 1 0 50.585744 0 25.292872 25.292872 0 1 0-50.585744 0Z" fill="" p-id="10514"></path><path d="M667.009174 504.412138m-25.292872 0a25.292872 25.292872 0 1 0 50.585745 0 25.292872 25.292872 0 1 0-50.585745 0Z" fill="" p-id="10515"></path></svg>