<?xml version="1.0" standalone="no"?><!DOCTYPE svg PUBLIC "-//W3C//DTD SVG 1.1//EN" "http://www.w3.org/Graphics/SVG/1.1/DTD/svg11.dtd"><svg t="1532166308498" class="icon" style="" viewBox="0 0 1024 1024" version="1.1" xmlns="http://www.w3.org/2000/svg" p-id="7861" xmlns:xlink="http://www.w3.org/1999/xlink" width="200" height="200"><defs><style type="text/css"></style></defs><path d="M877.301341 242.08892L738.55187 101.171489c-10.117149-10.117149-26.015526-10.117149-35.410021 0-10.117149 10.117149-10.117149 26.015526 0 35.410021l93.944954 94.667608H699.528582c-80.214538 0-154.647848 42.636556-195.839097 111.288638-7.226535 12.285109-2.890614 27.460833 8.671842 34.687368 4.335921 2.16796 8.671842 3.613267 13.007763 3.613267 8.671842 0 17.343684-4.335921 21.679604-12.285109 31.796754-53.476359 90.331687-86.718419 152.479888-86.71842H802.145378L703.141849 382.283698c-10.117149 10.117149-9.394495 26.015526 0 35.410021 5.058574 5.058574 11.562456 7.226535 18.066337 7.226535 6.503881 0 13.007763-2.16796 18.066338-7.226535l137.304163-139.472124c5.058574-5.058574 7.226535-11.562456 7.226535-18.066337 0.722653-6.503881-1.445307-13.007763-6.503881-18.066338z" fill="" p-id="7862"></path><path d="M497.185603 636.657728m-27.460832 0a27.460833 27.460833 0 1 0 54.921665 0 27.460833 27.460833 0 1 0-54.921665 0Z" fill="" p-id="7863"></path><path d="M497.185603 539.822159m-27.460832 0a27.460833 27.460833 0 1 0 54.921665 0 27.460833 27.460833 0 1 0-54.921665 0Z" fill="" p-id="7864"></path><path d="M497.185603 443.709245m-27.460832 0a27.460833 27.460833 0 1 0 54.921665 0 27.460833 27.460833 0 1 0-54.921665 0Z" fill="" p-id="7865"></path><path d="M777.575159 481.287227c-13.730416 0-25.292872 11.562456-25.292872 25.292872v325.194072c0 22.402258-18.066337 40.468596-40.468596 40.468595H281.834862c-22.402258 0-40.468596-18.066337-40.468595-40.468595v-325.194072c0-13.730416-11.562456-25.292872-25.292873-25.292872s-25.292872 11.562456-25.292872 25.292872v325.194072c0 49.863091 41.191249 91.05434 91.05434 91.05434h429.978829c49.863091 0 91.05434-41.191249 91.05434-91.05434v-325.194072c0-13.730416-11.562456-25.292872-25.292872-25.292872z" fill="" p-id="7866"></path><path d="M296.287932 806.481299h396.014115c13.730416 0 25.292872-11.562456 25.292872-25.292873s-11.562456-25.292872-25.292872-25.292872H296.287932c-13.730416 0-25.292872 11.562456-25.292872 25.292872s11.562456 25.292872 25.292872 25.292873z" fill="" p-id="7867"></path></svg>